<?xml version="1.0" encoding="utf-8"?>
<!-- Generator: Adobe Illustrator 26.1.0, SVG Export Plug-In . SVG Version: 6.00 Build 0)  -->
<svg version="1.1" xmlns="http://www.w3.org/2000/svg" xmlns:xlink="http://www.w3.org/1999/xlink" x="0px" y="0px"
	 viewBox="0 0 24 24" style="enable-background:new 0 0 24 24;" xml:space="preserve">
<style type="text/css">
	.st0{fill:#FF0000;}
	.st1{opacity:0;}
</style>
<g id="Layer_1">
	<path class="st0" d="M11.9,18.9c0,0-8.6-5.4-8.4-8.5S3.1,5.7,5,5.4S9.7,5.2,10.3,6s0.9,2.6,1.7,2.1c0.8-0.5,3.5-2.8,3.5-2.8
		l3.6,0.4l1.7,2.7l-0.7,3.7L13,18.9L12,19L11.9,18.9z"/>
	<g>
		<g>
			<rect y="0" class="st1" width="24" height="24"/>
			<path d="M12,21c-0.3,0-0.5-0.1-0.7-0.3l-7.8-7.8c-2-2-2-5.4,0-7.4c2-2,5.4-2,7.4,0L12,6.6l1.1-1.1c2-2,5.4-2,7.4,0
				c2,2,2,5.4,0,7.4l-7.8,7.8C12.5,20.9,12.3,21,12,21z M7.2,6C6.4,6,5.5,6.3,4.9,6.9c-1.3,1.3-1.3,3.3,0,4.6l7.1,7.1l7.1-7.1
				c1.3-1.3,1.3-3.3,0-4.6c-1.3-1.2-3.3-1.2-4.6,0l-1.8,1.8c-0.4,0.4-1,0.4-1.4,0c0,0,0,0,0,0L9.5,6.9C8.9,6.3,8.1,6,7.2,6z"/>
		</g>
	</g>
</g>
<g id="Layer_2">
</g>
</svg>
